<svg width="151" height="24" viewBox="0 0 151 24" fill="none" xmlns="http://www.w3.org/2000/svg">
<path d="M17.0329 22.8347V9.96883L12.3792 19.3369H9.64182L4.9882 9.96883V22.8347H0V1.23948H5.41402L11.0105 12.5238L16.6375 1.23948H22.0211V22.8347H17.0329Z" fill="white"/>
<path d="M33.1095 23.1389C31.751 23.1389 30.5343 22.9158 29.4596 22.4697C28.4052 22.0236 27.513 21.4153 26.783 20.6448C26.0531 19.8743 25.4954 18.9922 25.1102 17.9986C24.7452 17.005 24.5627 15.9607 24.5627 14.8658C24.5627 13.7505 24.7452 12.6961 25.1102 11.7025C25.4954 10.7089 26.0531 9.82689 26.783 9.05635C27.513 8.28582 28.4052 7.6775 29.4596 7.2314C30.5343 6.7853 31.751 6.56225 33.1095 6.56225C34.4681 6.56225 35.6746 6.7853 36.729 7.2314C37.7834 7.6775 38.6756 8.28582 39.4056 9.05635C40.1356 9.82689 40.6932 10.7089 41.0785 11.7025C41.4638 12.6961 41.6564 13.7505 41.6564 14.8658C41.6564 15.9607 41.4638 17.005 41.0785 17.9986C40.6932 18.9922 40.1356 19.8743 39.4056 20.6448C38.6756 21.4153 37.7834 22.0236 36.729 22.4697C35.6746 22.9158 34.4681 23.1389 33.1095 23.1389ZM29.5509 14.8658C29.5509 15.6971 29.703 16.4271 30.0071 17.0557C30.3316 17.6843 30.7574 18.171 31.2846 18.5157C31.8118 18.8604 32.4201 19.0327 33.1095 19.0327C33.7787 19.0327 34.3769 18.8604 34.9041 18.5157C35.4516 18.1507 35.8774 17.6539 36.1815 17.0253C36.4857 16.3967 36.6378 15.6769 36.6378 14.8658C36.6378 14.0344 36.4857 13.3044 36.1815 12.6758C35.8774 12.0472 35.4516 11.5606 34.9041 11.2159C34.3769 10.8712 33.7787 10.6988 33.1095 10.6988C32.4201 10.6988 31.8118 10.8712 31.2846 11.2159C30.7574 11.5606 30.3316 12.0472 30.0071 12.6758C29.703 13.3044 29.5509 14.0344 29.5509 14.8658Z" fill="white"/>
<path d="M53.6509 23.1389C52.4343 23.1389 51.3697 22.8854 50.4573 22.3785C49.5448 21.8513 48.825 21.1213 48.2977 20.1885V22.8347H44.0699V0.631165H48.9365V9.48217C49.4637 8.54942 50.1632 7.82958 51.0352 7.32265C51.9274 6.81572 52.9716 6.56225 54.168 6.56225C55.1819 6.56225 56.1045 6.7853 56.9358 7.2314C57.7875 7.65722 58.5175 8.2554 59.1258 9.02594C59.7544 9.77619 60.241 10.6583 60.5857 11.6721C60.9305 12.6657 61.1028 13.7505 61.1028 14.9266C61.1028 16.0824 60.9102 17.1571 60.5249 18.1507C60.1599 19.1443 59.6429 20.0162 58.9737 20.7664C58.3046 21.5167 57.5137 22.1047 56.6013 22.5306C55.7091 22.9361 54.7256 23.1389 53.6509 23.1389ZM52.2822 19.0327C52.8297 19.0327 53.3366 18.9314 53.803 18.7286C54.2897 18.5055 54.7053 18.2115 55.0501 17.8465C55.3948 17.4815 55.6584 17.0557 55.8409 16.5691C56.0234 16.0621 56.1146 15.5146 56.1146 14.9266C56.1146 14.1764 55.9625 13.4768 55.6584 12.8279C55.3542 12.179 54.9284 11.662 54.3809 11.2767C53.8537 10.8914 53.2352 10.6988 52.5255 10.6988C52.0186 10.6988 51.532 10.8205 51.0656 11.0638C50.5992 11.3071 50.1835 11.6417 49.8185 12.0675C49.4535 12.4731 49.1595 12.9394 48.9365 13.4666V16.8124C49.0987 17.1571 49.3015 17.4714 49.5448 17.7553C49.7881 18.0189 50.0517 18.2419 50.3356 18.4244C50.6398 18.6069 50.9541 18.759 51.2785 18.8807C51.6232 18.9821 51.9578 19.0327 52.2822 19.0327Z" fill="white"/>
<path d="M63.5254 22.8347V6.86641H68.3919V22.8347H63.5254ZM63.5254 5.04146V0.631165H68.3919V5.04146H63.5254Z" fill="white"/>
<path d="M85.9766 1.16969e-05C88.7264 -0.000774328 91.3914 0.951986 93.5175 2.69594C95.6436 4.43988 97.0992 6.86711 97.6362 9.56399C98.1732 12.2609 97.7585 15.0605 96.4626 17.4859C95.1668 19.9112 93.07 21.8122 90.5296 22.8648C87.9892 23.9175 85.1625 24.0567 82.531 23.2587C79.8995 22.4607 77.6261 20.7749 76.0983 18.4885C74.5704 16.2022 73.8826 13.4569 74.1521 10.7203C74.4216 7.98367 75.6317 5.4252 77.5762 3.48083C78.6778 2.37553 79.9872 1.49898 81.4288 0.9016C82.8705 0.304224 84.4161 -0.00218205 85.9766 1.16969e-05ZM85.9012 14.3448L84.1704 19.1271C84.1279 19.2469 84.0618 19.3571 83.9762 19.451C83.8905 19.545 83.7869 19.6209 83.6715 19.6744C83.4982 19.7556 83.3046 19.7836 83.1153 19.7548C82.9261 19.7259 82.7496 19.6415 82.6084 19.5123C82.4671 19.383 82.3674 19.2148 82.3219 19.0288C82.2764 18.8428 82.2871 18.6475 82.3527 18.4677L83.5594 15.1261C83.6551 14.8746 83.7308 14.616 83.7856 14.3526C83.8344 14.0851 83.8692 13.8153 83.89 13.5443C83.9364 13.055 83.9693 12.5252 83.9945 12.0166C84.0196 11.508 84.037 11.0149 84.0505 10.6068C84.0679 10.0982 83.9306 10.0654 83.5226 9.96868L83.4375 9.94935L79.9567 9.29379C79.8315 9.27171 79.7119 9.22516 79.6047 9.15681C79.4976 9.08845 79.4049 8.99963 79.3321 8.89543C79.2239 8.73758 79.165 8.55118 79.1629 8.35983C79.1607 8.16848 79.2153 7.98079 79.3199 7.82052C79.4245 7.66026 79.5742 7.53462 79.7503 7.45953C79.9263 7.38444 80.1206 7.36326 80.3087 7.39868L84.0486 8.10065C84.1975 8.11418 84.3425 8.13159 84.4953 8.14899C84.9555 8.21205 85.4193 8.24628 85.8838 8.25148C86.462 8.24019 87.0391 8.19694 87.6126 8.12192C87.7866 8.10258 87.951 8.08131 88.1154 8.06584L91.6445 7.40448C91.8949 7.35256 92.1556 7.40193 92.3697 7.54178C92.4758 7.61357 92.5666 7.70572 92.6367 7.81288C92.7069 7.92005 92.7551 8.04009 92.7785 8.16603C92.8019 8.29198 92.8 8.42131 92.773 8.54653C92.746 8.67174 92.6943 8.79034 92.6211 8.89543C92.5493 9.00029 92.4575 9.08996 92.3509 9.15931C92.2444 9.22866 92.1253 9.27633 92.0003 9.29959L88.6278 9.93388C88.5157 9.95901 88.4151 9.97642 88.3261 9.98996C87.9742 10.0499 87.8001 10.0808 87.8214 10.5817C87.8369 10.9472 87.8814 11.3842 87.9394 11.8406C88.0071 12.3762 88.096 12.9448 88.1888 13.465C88.2488 13.8073 88.3049 14.0818 88.3822 14.3448C88.4596 14.6078 88.535 14.8766 88.651 15.1996L89.8326 18.4677C89.8981 18.6475 89.9089 18.8428 89.8633 19.0288C89.8178 19.2148 89.7181 19.383 89.5769 19.5123C89.4356 19.6415 89.2592 19.7259 89.0699 19.7548C88.8806 19.7836 88.6871 19.7556 88.5137 19.6744C88.3983 19.6209 88.2947 19.545 88.2091 19.451C88.1234 19.3571 88.0574 19.2469 88.0148 19.1271L86.2783 14.3545L86.0849 14.0006L85.8915 14.3448H85.9012ZM85.9766 3.99522C86.3717 3.99488 86.7546 4.13154 87.0602 4.38192C87.3658 4.6323 87.5751 4.98089 87.6525 5.36831C87.7299 5.75572 87.6705 6.15798 87.4846 6.50654C87.2986 6.85509 86.9975 7.12838 86.6326 7.27983C86.2677 7.43128 85.8616 7.45152 85.4835 7.3371C85.1054 7.22268 84.7786 6.98069 84.5589 6.65235C84.3392 6.32401 84.2401 5.92964 84.2786 5.53646C84.3171 5.14327 84.4907 4.77559 84.7699 4.49607C84.9281 4.33712 85.1161 4.21104 85.3232 4.12508C85.5303 4.03912 85.7524 3.99498 85.9766 3.99522ZM93.0059 4.85188C91.3817 3.22228 89.2427 2.20634 86.9534 1.9772C84.664 1.74806 82.3661 2.31991 80.4511 3.59528C78.5362 4.87065 77.1228 6.77062 76.4518 8.97138C75.7808 11.1721 75.8937 13.5375 76.7714 15.6643C77.649 17.7911 79.237 19.5477 81.2648 20.6349C83.2925 21.722 85.6345 22.0723 87.8916 21.626C90.1487 21.1798 92.1812 19.9646 93.6427 18.1877C95.1042 16.4108 95.9043 14.182 95.9066 11.8812C95.9095 10.5763 95.6547 9.28364 95.157 8.07739C94.6592 6.87114 93.9282 5.77502 93.0059 4.85188Z" fill="white"/>
<path d="M103.568 0.51239H107.644V17.7866C107.644 18.5242 107.765 19.0263 108.009 19.2927C108.252 19.5386 108.587 19.6615 109.012 19.6615C109.337 19.6615 109.671 19.6205 110.016 19.5386C110.361 19.4566 110.665 19.3541 110.929 19.2312L111.476 22.3664C110.929 22.6328 110.29 22.8377 109.56 22.9811C108.83 23.1245 108.171 23.1963 107.583 23.1963C106.305 23.1963 105.312 22.8582 104.602 22.1819C103.913 21.4852 103.568 20.5017 103.568 19.2312V0.51239Z" fill="white"/>
<path d="M113.252 22.9504V6.8442H117.328V22.9504H113.252ZM113.252 4.60041V0.51239H117.328V4.60041H113.252Z" fill="white"/>
<path d="M119.94 20.4299L128.73 9.73348H120.305V6.8442H133.11V9.36463L124.381 20.0611H133.262V22.9504H119.94V20.4299Z" fill="white"/>
<path d="M134.909 18.1861C134.909 17.1411 135.193 16.2292 135.761 15.4506C136.349 14.6514 137.16 14.0366 138.194 13.6063C139.228 13.176 140.415 12.9609 141.753 12.9609C142.422 12.9609 143.101 13.0121 143.791 13.1145C144.48 13.217 145.078 13.3809 145.585 13.6063V12.7457C145.585 11.7211 145.281 10.9322 144.673 10.379C144.085 9.82569 143.203 9.54905 142.027 9.54905C141.155 9.54905 140.323 9.70274 139.533 10.0101C138.742 10.3175 137.91 10.7683 137.039 11.3625L135.731 8.65768C136.785 7.96098 137.86 7.43845 138.955 7.0901C140.07 6.74175 141.236 6.56757 142.453 6.56757C144.724 6.56757 146.488 7.14133 147.745 8.28884C149.022 9.43635 149.661 11.0757 149.661 13.2068V18.3398C149.661 18.7701 149.732 19.0775 149.874 19.2619C150.036 19.4464 150.29 19.5591 150.634 19.6V22.9504C150.269 23.0118 149.935 23.0631 149.631 23.1041C149.347 23.145 149.103 23.1655 148.901 23.1655C148.09 23.1655 147.471 22.9811 147.045 22.6123C146.64 22.2434 146.386 21.7926 146.285 21.2598L146.194 20.4299C145.504 21.3316 144.642 22.0283 143.608 22.5201C142.574 23.0118 141.52 23.2577 140.445 23.2577C139.391 23.2577 138.438 23.0426 137.586 22.6123C136.755 22.1615 136.096 21.557 135.609 20.7988C135.143 20.0201 134.909 19.1492 134.909 18.1861ZM144.825 19.016C145.048 18.7701 145.231 18.5242 145.372 18.2783C145.514 18.0325 145.585 17.807 145.585 17.6021V15.9731C145.099 15.7682 144.572 15.6145 144.004 15.512C143.436 15.3891 142.899 15.3276 142.392 15.3276C141.337 15.3276 140.465 15.5633 139.776 16.0346C139.107 16.4854 138.772 17.0899 138.772 17.848C138.772 18.2579 138.884 18.6472 139.107 19.016C139.33 19.3849 139.654 19.682 140.08 19.9074C140.506 20.1328 141.013 20.2455 141.601 20.2455C142.209 20.2455 142.807 20.1328 143.395 19.9074C143.983 19.6615 144.46 19.3644 144.825 19.016Z" fill="white"/>
</svg>